<svg width="12" height="12" viewBox="0 0 12 12" fill="none" xmlns="http://www.w3.org/2000/svg">
<g clip-path="url(#clip0)">
<path d="M9.11855 2.6261L9.11864 2.626C9.41425 2.27583 9.93764 2.22592 10.2951 2.51311C10.6595 2.80551 10.7128 3.33707 10.4112 3.69517L10.4109 3.69551L5.62039 9.3736C5.62023 9.37379 5.62008 9.37397 5.61992 9.37416C5.46815 9.55427 5.24855 9.66116 5.0151 9.67237C5.01419 9.67241 5.01328 9.67246 5.01237 9.6725L4.99 9.173C4.98453 9.17333 4.97904 9.17333 4.97357 9.17333C4.88288 9.17333 4.79562 9.1386 4.73163 9.07546L9.11855 2.6261ZM9.11855 2.6261L4.91378 7.6096L2.82705 5.57302C2.82704 5.57301 2.82703 5.573 2.82703 5.573C2.49898 5.25281 1.97269 5.25282 1.64466 5.57302C1.30985 5.89982 1.30985 6.43415 1.64466 6.76095L4.38046 9.43139C4.38086 9.43178 4.38125 9.43217 4.38165 9.43256L9.11855 2.6261Z" fill="#FFF" stroke="#FFF"/>
</g>
<defs>
<clipPath id="clip0">
<rect width="11.2" height="11.2" fill="white" transform="translate(0.400391 0.400024)"/>
</clipPath>
</defs>
</svg>
